<?xml version="1.0" standalone="no"?>
<!DOCTYPE svg PUBLIC "-//W3C//DTD SVG 20010904//EN"
 "http://www.w3.org/TR/2001/REC-SVG-20010904/DTD/svg10.dtd">
<svg version="1.0" xmlns="http://www.w3.org/2000/svg"
 width="621.000000pt" height="163.000000pt" viewBox="0 0 621.000000 163.000000"
 preserveAspectRatio="xMidYMid meet">
<metadata>
Created by potrace 1.16, written by Peter Selinger 2001-2019
</metadata>
<g transform="translate(0.000000,163.000000) scale(0.100000,-0.100000)"
fill="#000000" stroke="none">
<path d="M0 815 l0 -815 3105 0 3105 0 0 815 0 815 -3105 0 -3105 0 0 -815z
m2460 661 l85 -11 5 -120 c3 -66 6 -121 5 -122 0 -1 -29 5 -65 13 -36 7 -110
16 -165 20 -335 22 -575 -180 -575 -483 0 -189 109 -335 292 -389 84 -24 258
-23 388 3 l95 19 -20 -122 -19 -123 -31 -5 c-82 -15 -310 -27 -390 -21 -186
14 -304 50 -425 130 -178 118 -252 271 -252 515 1 237 85 417 254 545 198 150
458 198 818 151z m3090 -7 c146 -28 245 -81 350 -188 132 -133 173 -239 173
-441 0 -197 -51 -341 -165 -465 -132 -143 -281 -210 -530 -236 -195 -21 -427
17 -573 94 -83 43 -223 184 -258 259 -47 99 -60 177 -54 328 5 148 23 220 78
317 160 281 557 416 979 332z m-4354 -60 c-3 -34 -6 -85 -6 -113 l0 -51 -304
0 c-237 0 -308 -3 -318 -13 -9 -8 -15 -55 -19 -135 -8 -181 -32 -167 271 -167
l250 0 0 -57 c0 -32 -3 -81 -6 -110 l-7 -52 -253 -3 c-185 -2 -256 -6 -265
-15 -9 -9 -14 -84 -17 -273 l-5 -260 -189 0 -190 0 6 38 c18 118 41 559 52
1005 l7 267 500 0 500 0 -7 -61z m2050 4 c-4 -32 -11 -138 -16 -236 -11 -190
-8 -212 33 -222 45 -12 565 -1 578 12 10 10 27 269 29 451 l0 52 186 0 186 0
-7 -62 c-19 -195 -37 -568 -42 -885 l-6 -363 -190 0 -189 0 6 83 c16 192 24
432 15 454 l-9 23 -294 0 c-355 0 -326 14 -326 -160 0 -63 -3 -179 -7 -258
l-6 -142 -184 0 -183 0 0 43 c0 23 7 130 14 237 14 183 28 472 42 863 l6 167
185 0 185 0 -6 -57z"/>
<path d="M5200 1256 c-220 -47 -366 -257 -347 -499 17 -228 167 -372 399 -385
261 -14 443 162 456 439 11 236 -110 402 -326 448 -65 14 -110 13 -182 -3z"/>
</g>
</svg>
